<svg width="1200" height="640" viewBox="0 0 1200 640" fill="none" xmlns="http://www.w3.org/2000/svg" role="img" aria-labelledby="title desc">
  <title id="title">NotchSpark preview</title>
  <desc id="desc">A stylized MacBook screen with a notch and a compact fun fact bubble.</desc>
  <defs>
    <linearGradient id="screen" x1="160" y1="72" x2="1040" y2="568" gradientUnits="userSpaceOnUse">
      <stop stop-color="#10151F"/>
      <stop offset="0.45" stop-color="#182237"/>
      <stop offset="1" stop-color="#0B0D12"/>
    </linearGradient>
    <linearGradient id="wallpaper" x1="250" y1="142" x2="950" y2="520" gradientUnits="userSpaceOnUse">
      <stop stop-color="#0A84FF" stop-opacity="0.72"/>
      <stop offset="0.48" stop-color="#BF5AF2" stop-opacity="0.52"/>
      <stop offset="1" stop-color="#30D158" stop-opacity="0.48"/>
    </linearGradient>
    <linearGradient id="bubble" x1="416" y1="197" x2="784" y2="287" gradientUnits="userSpaceOnUse">
      <stop stop-color="#F9FBFF"/>
      <stop offset="0.58" stop-color="#EDF3FA"/>
      <stop offset="1" stop-color="#CFE8FF"/>
    </linearGradient>
    <filter id="shadow" x="360" y="152" width="480" height="190" filterUnits="userSpaceOnUse" color-interpolation-filters="sRGB">
      <feFlood flood-opacity="0" result="BackgroundImageFix"/>
      <feColorMatrix in="SourceAlpha" type="matrix" values="0 0 0 0 0 0 0 0 0 0 0 0 0 0 0 0 0 0 127 0" result="hardAlpha"/>
      <feOffset dy="20"/>
      <feGaussianBlur stdDeviation="24"/>
      <feComposite in2="hardAlpha" operator="out"/>
      <feColorMatrix type="matrix" values="0 0 0 0 0.02 0 0 0 0 0.03 0 0 0 0 0.06 0 0 0 0.36 0"/>
      <feBlend mode="normal" in2="BackgroundImageFix" result="effect1_dropShadow_1"/>
      <feBlend mode="normal" in="SourceGraphic" in2="effect1_dropShadow_1" result="shape"/>
    </filter>
  </defs>

  <rect width="1200" height="640" rx="48" fill="#F5F7FB"/>
  <rect x="155" y="70" width="890" height="500" rx="38" fill="#DCE3EE"/>
  <rect x="176" y="92" width="848" height="456" rx="24" fill="url(#screen)"/>
  <rect x="176" y="92" width="848" height="456" rx="24" fill="url(#wallpaper)" opacity="0.32"/>

  <path d="M532 92H668V111C668 129.778 652.778 145 634 145H566C547.222 145 532 129.778 532 111V92Z" fill="#05060A"/>
  <circle cx="600" cy="113" r="7" fill="#1D2230"/>

  <g filter="url(#shadow)">
    <rect x="398" y="184" width="404" height="86" rx="27" fill="url(#bubble)"/>
    <rect x="399" y="185" width="402" height="84" rx="26" stroke="white" stroke-opacity="0.82" stroke-width="2"/>
    <circle cx="442" cy="227" r="22" fill="#0A84FF" fill-opacity="0.16"/>
    <circle cx="442" cy="227" r="21" stroke="#111827" stroke-opacity="0.18" stroke-width="2"/>
    <path d="M442 213L445.6 222.4L455 226L445.6 229.6L442 239L438.4 229.6L429 226L438.4 222.4L442 213Z" fill="#111827"/>
    <text x="480" y="220" fill="#111827" font-family="-apple-system, BlinkMacSystemFont, 'SF Pro Display', sans-serif" font-size="19" font-weight="700">A day on Venus is longer than its year.</text>
    <text x="480" y="248" fill="#475467" font-family="-apple-system, BlinkMacSystemFont, 'SF Pro Display', sans-serif" font-size="13" font-weight="600">Tiny offline facts, right when curiosity appears.</text>
  </g>

  <text x="600" y="612" fill="#101828" text-anchor="middle" font-family="-apple-system, BlinkMacSystemFont, 'SF Pro Display', sans-serif" font-size="28" font-weight="800">NotchSpark ✨</text>
</svg>
